<?xml version="1.0" encoding="UTF-8" standalone="no"?>
<!-- Created with Inkscape (http://www.inkscape.org/) -->

<svg
   xmlns:dc="http://purl.org/dc/elements/1.1/"
   xmlns:cc="http://creativecommons.org/ns#"
   xmlns:rdf="http://www.w3.org/1999/02/22-rdf-syntax-ns#"
   xmlns:svg="http://www.w3.org/2000/svg"
   xmlns="http://www.w3.org/2000/svg"
   xmlns:xlink="http://www.w3.org/1999/xlink"
   xmlns:sodipodi="http://sodipodi.sourceforge.net/DTD/sodipodi-0.dtd"
   xmlns:inkscape="http://www.inkscape.org/namespaces/inkscape"
   id="svg3039"
   version="1.1"
   inkscape:version="0.48.4 r9939"
   width="450"
   height="720"
   sodipodi:docname="1012459_485162581576310_1240742684_n.jpg">
  <metadata
     id="metadata3045">
    <rdf:RDF>
      <cc:Work
         rdf:about="">
        <dc:format>image/svg+xml</dc:format>
        <dc:type
           rdf:resource="http://purl.org/dc/dcmitype/StillImage" />
        <dc:title></dc:title>
      </cc:Work>
    </rdf:RDF>
  </metadata>
  <defs
     id="defs3043" />
  <sodipodi:namedview
     pagecolor="#ffffff"
     bordercolor="#666666"
     borderopacity="1"
     objecttolerance="10"
     gridtolerance="10"
     guidetolerance="10"
     inkscape:pageopacity="0"
     inkscape:pageshadow="2"
     inkscape:window-width="1375"
     inkscape:window-height="876"
     id="namedview3041"
     showgrid="false"
     inkscape:zoom="0.32777778"
     inkscape:cx="225"
     inkscape:cy="360"
     inkscape:window-x="65"
     inkscape:window-y="24"
     inkscape:window-maximized="1"
     inkscape:current-layer="svg3039" />
  <path
     style="fill:none;stroke:#000000;stroke-width:1px;stroke-linecap:butt;stroke-linejoin:miter;stroke-opacity:1"
     d="m 36.610169,503.38983 c -17.219718,2.54079 -9.097288,-2.01548 -21.355932,-6.10169 -0.964762,-0.32159 -2.086084,0.32158 -3.050847,0 -2.157275,-0.7191 -3.8956226,-2.49933 -6.1016951,-3.05085 -1.9731712,-0.49329 -4.0677966,0 -6.1016949,0 -2.0338983,-1.01695 -3.94442,-2.33176 -6.1016949,-3.05085 -0.9647627,-0.32159 -2.1412605,0.45479 -3.0508475,0 -1.2863506,-0.64317 -1.7644976,-2.40767 -3.0508476,-3.05085 -0.907551,-0.45377 -17.021708,0 -18.305085,0 -2.106677,0 -11.275822,-0.46378 -12.203389,0 -2.572701,1.28635 -3.708414,4.50618 -6.101695,6.1017 -1.892056,1.26137 -4.493757,1.44291 -6.101695,3.05085 -1.438184,1.43818 1.438183,4.66351 0,6.10169 -0.719092,0.71909 -2.331756,-0.71909 -3.050848,0 -1.438183,1.43818 1.438184,4.66351 0,6.1017 -0.719091,0.71909 -2.331756,-0.7191 -3.050847,0 -0.09811,0.0981 0,8.41263 0,9.15254 0,6.10169 0,12.20339 0,18.30508 0,1.37398 -0.464238,8.22407 0,9.15254 0.643175,1.28636 2.407672,1.7645 3.050847,3.05085 0.909587,1.81918 -1.438183,4.66351 0,6.1017 0.719092,0.71909 2.331756,-0.71909 3.050848,0 0.719091,0.71909 -0.719092,2.33175 0,3.05084 0.719091,0.7191 2.331756,-0.71909 3.050847,0 0.719092,0.7191 -0.719091,2.33176 0,3.05085 1.438184,1.43819 4.663512,-1.43818 6.101695,0 0.719092,0.71909 -0.719092,2.33176 0,3.05085 0.305085,0.30508 8.847458,0.30508 9.152543,0 0.719091,-0.71909 -0.719092,-2.33176 0,-3.05085 1.438183,-1.43818 4.28252,0.90959 6.101694,0 1.286351,-0.64317 1.764498,-2.40767 3.050848,-3.05085 1.819174,-0.90958 4.663512,1.43819 6.101695,0 0.719091,-0.71909 -0.719092,-2.33175 0,-3.05084 0.719091,-0.71909 2.331756,0.71909 3.050847,0 0.719092,-0.71909 -0.719091,-2.33176 0,-3.05085 1.438184,-1.43818 4.663512,1.43818 6.101695,0 0.719092,-0.71909 -0.719091,-2.33176 0,-3.05085 0.719092,-0.71909 2.331756,0.71909 3.0508476,0 0.7190917,-0.71909 -0.4547935,-2.14126 0,-3.05085 0.6431751,-1.28635 2.4076724,-1.76449 3.0508475,-3.05084 0.4547935,-0.90959 -0.7190917,-2.33176 0,-3.05085 0.7190916,-0.71909 2.3317558,0.71909 3.0508474,0 1.4381833,-1.43818 -0.9095869,-4.28252 0,-6.10169 0.6431752,-1.28636 2.40767238,-1.7645 3.0508475,-3.05085 0.45479349,-0.90959 -0.45479349,-2.14126 0,-3.05085 1.2863502,-2.5727 5.1921079,-3.37293 6.1016949,-6.10169 0.9152543,-2.74577 -0.9152542,-6.40678 0,-9.15255 0.7190917,-2.15727 2.3317558,-3.94442 3.0508475,-6.10169 0.8792066,-2.63762 -0.97066,-13.31292 0,-15.25424 0.6431751,-1.28635 2.4076726,-1.7645 3.0508476,-3.05085 0.454793,-0.90958 0,-2.0339 0,-3.05084 0,-1.01695 0,-2.0339 0,-3.05085 0,-5.08475 0,-10.16949 0,-15.25424 0,-5.08474 0,-10.16949 0,-15.25424 0,-2.03389 0.909587,-4.28252 0,-6.10169 -0.454794,-0.90959 -2.5960541,0.90959 -3.0508476,0 -0.9587628,-1.91753 0.9587626,-10.28587 0,-12.20339 -0.6431751,-1.28635 -2.4076724,-1.7645 -3.0508475,-3.05085 -0.909587,-1.81917 0.6431751,-4.17217 0,-6.10169 -0.7190916,-2.15728 -2.4993293,-3.89563 -3.0508474,-6.1017 -0.4932928,-1.97317 0.9095869,-4.28252 0,-6.10169 -0.4547935,-0.90959 -2.59605401,0.90958 -3.0508475,0 -0.90958697,-1.81918 0.64317512,-4.17217 0,-6.1017 -0.45479349,-1.36438 -3.0508475,-1.61266 -3.0508475,-3.05085 0,-2.27396 2.33175586,-3.94442 3.0508475,-6.10169 0.22330245,-0.66991 0.22677856,-11.74983 0,-12.20339 -0.64317512,-1.28635 -2.4076723,-1.7645 -3.0508475,-3.05085 -0.4547934,-0.90958 -1.0169491,-3.05085 0,-3.05085 1.0169492,0 0,2.0339 0,3.05085 0,1.01695 0,2.0339 0,3.05085 0,8 0,4.20339 0,12.20339 0,11.91798 -0.9095869,0.32209 3.0508475,12.20339 0.32158756,0.96476 -0.32158756,2.08608 0,3.05085 0.71909164,2.15727 2.3317558,3.94442 3.0508475,6.10169 0.9152542,2.74576 -0.9152543,6.40678 0,9.15254 0.4547934,1.36438 2.4076723,1.7645 3.0508474,3.05085 1.220339,2.44068 -1.220339,6.71187 0,9.15254 0.4547935,0.90959 2.0338983,0 3.0508475,0 1.0169496,1.01695 2.5960536,1.68647 3.0508476,3.05085 0.219471,0.65841 -0.558554,11.36556 0,12.20339 1.595521,2.39328 4.506174,3.70841 6.101695,6.1017 1.128204,1.6923 -0.909587,4.28252 0,6.10169 0.643175,1.28635 2.596054,1.68647 3.050847,3.05085 0.643175,1.92952 -0.909587,4.28252 0,6.10169 0.454794,0.90959 2.331756,-0.71909 3.050848,0 1.525423,1.52543 -1.525424,7.62712 0,9.15255 0.719091,0.71909 2.033898,0 3.050847,0 3.050848,6.10169 6.329619,12.09465 9.152542,18.30508 2.266167,4.98557 4.369893,10.05883 6.101695,15.25424 0.643176,1.92952 -1.438183,4.66351 0,6.10169 0.719092,0.71909 2.331756,-0.71909 3.050848,0 0.719092,0.71909 -0.719092,2.33176 0,3.05085 0.719092,0.71909 2.331756,-0.71909 3.050847,0 3.009592,3.00959 -6.251421,6.1017 3.050848,6.1017 1.016949,0 2.14126,0.45479 3.050847,0 6.745592,-3.3728 0.946744,-1.89349 3.050848,-6.1017 1.28635,-2.5727 4.815344,-3.52899 6.101695,-6.10169 0.454793,-0.90959 -0.454794,-2.14127 0,-3.05085 1.28635,-2.5727 4.815344,-3.529 6.101695,-6.1017 0.454793,-0.90958 -0.564102,-2.20469 0,-3.05084 1.595521,-2.39329 4.506173,-3.70842 6.101694,-6.1017 0.564102,-0.84615 0,-2.0339 0,-3.05085 1.01695,-2.0339 1.44291,-4.49375 3.050848,-6.10169 0.719092,-0.71909 2.331756,0.71909 3.050847,0 0.719092,-0.71909 -0.454793,-2.14126 0,-3.05085 0.643175,-1.28635 2.407673,-1.7645 3.050848,-3.05085 0.454793,-0.90958 -0.719092,-2.33175 0,-3.05084 0.719091,-0.7191 2.331756,0.71909 3.050847,0 0.719092,-0.7191 -0.454793,-2.14126 0,-3.05085 1.286351,-2.5727 4.815345,-3.529 6.101695,-6.1017 0.909587,-1.81917 -0.909587,-4.28252 0,-6.10169 6.348449,-12.6969 -0.210617,3.26146 6.101699,-3.05085 0.71909,-0.71909 0,-2.0339 0,-3.05085 0,-2.03389 0,-4.06779 0,-6.10169 0,-1.43847 0.13827,-15.11597 0,-15.25424 -0.719096,-0.71909 -2.033902,0 -3.050851,0 -9.302269,0 -0.04126,3.0921 -3.050848,6.1017 -0.719091,0.71909 -2.033898,0 -3.050847,0 -1.016949,0 -2.033899,0 -3.050848,0 -5.084745,0 -10.169491,0 -15.254237,0 -2.033898,0 -4.282521,-0.90959 -6.101695,0 -0.909587,0.45479 0.719092,2.33175 0,3.05084 -0.719092,0.7191 -2.331756,-0.71909 -3.050847,0 -1.070907,1.07091 1.053661,13.14692 0,15.25424 -0.643176,1.28635 -2.407673,1.7645 -3.050848,3.05085 -0.464238,0.92848 0,7.77857 0,9.15254 0,6.1017 0,12.20339 0,18.30509 0,0.73991 -0.09811,9.05442 0,9.15254 6.312312,6.31231 -0.246753,-9.64605 6.101695,3.05085 2.104104,4.2082 -3.694744,2.72889 3.050848,6.10169 0.909586,0.45479 2.331755,-0.71909 3.050847,0 1.438183,1.43818 -2.033898,6.1017 0,6.1017 2.273967,0 3.827727,-3.05085 6.101695,-3.05085 2.033898,0 -1.819174,5.19211 0,6.10169 1.917525,0.95877 10.285864,-0.95876 12.20339,0 1.28635,0.64318 1.764497,2.40768 3.050847,3.05085 0.909587,0.45479 2.033898,0 3.050848,0 1.016949,0 2.14126,0.45479 3.050851,0 1.28635,-0.64317 1.68646,-2.59605 3.05084,-3.05085 3.85905,-1.28635 8.34434,1.28635 12.20339,0 2.72876,-0.90958 3.529,-4.81534 6.1017,-6.10169 1.81917,-0.90959 4.28252,0.90958 6.10169,0 1.28635,-0.64318 1.85421,-2.25309 3.05085,-3.05085 1.89206,-1.26137 4.20964,-1.78948 6.1017,-3.05085 1.19664,-0.79776 1.76449,-2.40767 3.05084,-3.05084 4.20821,-2.10411 2.7289,3.69474 6.1017,-3.05085 0.45479,-0.90959 -0.71909,-2.33176 0,-3.05085 0.18938,-8.59039 6.87857,-0.77688 9.15254,-3.05085 0.71909,-0.71909 -0.45479,-2.14126 0,-3.05084 2.33631,-4.67261 5.43666,-2.38582 9.15254,-6.1017 0.71909,-0.71909 -0.45479,-2.14126 0,-3.05085 0.64318,-1.28635 2.40768,-1.76449 3.05085,-3.05084 0.45479,-0.90959 -0.90959,-2.59606 0,-3.05085 1.81917,-0.90959 4.28252,0.90959 6.1017,0 0.90958,-0.4548 0,-2.0339 0,-3.05085 0,-5.08474 0,-10.16949 0,-15.25424 0,-5.08474 0,-10.16949 0,-15.25423 0,-1.01695 0.71909,-2.33176 0,-3.05085 -0.7191,-0.71909 -2.33176,0.71909 -3.05085,0 -1.43819,-1.43818 1.43818,-4.66351 0,-6.1017 -0.71909,-0.71909 -2.33176,0.7191 -3.05085,0 -1.43818,-1.43818 1.43818,-4.66351 0,-6.10169 -0.71909,-0.71909 -2.33176,0.71909 -3.05085,0 -0.71909,-0.71909 0.71909,-2.33176 0,-3.05085 -0.71909,-0.71909 -2.33175,0.71909 -3.05084,0 -0.7191,-0.71909 0.71909,-2.33175 0,-3.05085 -0.7191,-0.71909 -2.33176,0.7191 -3.05085,0 -0.71909,-0.71909 0.71909,-2.33175 0,-3.05084 -0.71909,-0.7191 -2.0339,0 -3.05085,0 -0.73991,0 -9.05443,-0.0981 -9.15254,0 -0.71909,0.71909 0.71909,2.33175 0,3.05084 -1.43819,1.43819 -4.66351,-1.43818 -6.1017,0 -0.71909,0.7191 0,2.0339 0,3.05085 0,5.08475 0,10.16949 0,15.25424 0,8.13559 0,16.27119 0,24.40678 0,1.01695 0,2.0339 0,3.05085 0,1.01695 -0.71909,2.33175 0,3.05084 0.71909,0.7191 2.33176,-0.71909 3.05085,0 1.43818,1.43819 -0.90959,4.28252 0,6.1017 0.64318,1.28635 2.40767,1.7645 3.05085,3.05085 0.45479,0.90958 -0.4548,2.14126 0,3.05084 1.28635,2.5727 4.81534,3.529 6.10169,6.1017 0.90959,1.81917 -1.43818,4.66351 0,6.10169 0.71909,0.71909 2.33176,-0.71909 3.05085,0 6.31231,6.31232 -9.64605,-0.24675 3.05085,6.1017 0.90958,0.45479 2.33175,-0.71909 3.05085,0 1.43818,1.43818 -1.43819,4.66351 0,6.10169 0.71909,0.71909 2.08608,-0.32158 3.05084,0 2.15728,0.71909 4.49376,1.44291 6.1017,3.05085 0.71909,0.71909 -0.71909,2.33176 0,3.05085 0.71909,0.71909 2.14126,-0.4548 3.05085,0 1.28635,0.64317 1.76449,2.40767 3.05084,3.05085 0.90959,0.45479 2.0339,0 3.05085,0 1.01695,0 2.0339,0 3.05085,0 5.08474,0 10.16949,0 15.25423,0 1.01695,0 2.33176,0.71909 3.05085,0 0.71909,-0.7191 -0.71909,-2.33176 0,-3.05085 6.31231,-6.31231 -0.24675,9.64605 6.1017,-3.05085 0.45479,-0.90959 -0.90959,-2.59605 0,-3.05085 1.81917,-0.90958 4.17217,0.64318 6.10169,0 6.07103,-2.02367 1.42373,-2.84745 3.05085,-6.10169 4.68643,-9.37287 1.72078,5.04595 9.15254,-6.1017 1.12821,-1.6923 -0.64317,-4.17217 0,-6.10169 -1.14032,-6.64631 5.08475,-1.01695 6.1017,-3.05085 0.90958,-1.81917 -0.90959,-4.28252 0,-6.10169 0.45479,-0.90959 2.33175,0.71909 3.05084,0 1.60794,-1.60794 1.78948,-4.20964 3.05085,-6.1017 0.79776,-1.19664 2.59606,-1.68647 3.05085,-3.05085 0.64317,-1.92952 -0.90959,-4.28252 0,-6.10169 0.45479,-0.90959 2.14126,0.45479 3.05085,0 12.69689,-6.34845 -3.26147,0.21062 3.05084,-6.1017 0.7191,-0.71909 2.33176,0.7191 3.05085,0 1.60794,-1.60793 1.78948,-4.20964 3.05085,-6.10169 0.79776,-1.19664 2.70204,-1.65561 3.05085,-3.05085 0.73994,-2.95976 -0.59832,-6.16094 0,-9.15254 0.44596,-2.22981 2.33175,-3.94442 3.05084,-6.1017 0.64318,-1.92952 0,-4.06779 0,-6.10169 0,-2.16245 0.3944,-17.51629 0,-18.30509 -0.64317,-1.28635 -2.03389,-2.03389 -3.05084,-3.05084 -1.01695,0 -2.59606,0.90958 -3.05085,0 -7.53988,-15.07976 6.76968,0.66798 -3.05085,-9.15255 -1.01695,-1.01694 -2.40767,-1.76449 -3.05085,-3.05084 -2.1041,-4.20821 3.69475,-2.7289 -3.05084,-6.1017 -0.90959,-0.45479 -3.05085,-1.01695 -3.05085,0 0,1.43819 2.40767,1.7645 3.05085,3.05085 0.8052,1.61041 -0.88569,7.82401 0,9.15254 13.88832,13.88833 1.61266,-1.2637 6.10169,12.20339 1.56215,4.68644 6.66072,2.36396 9.15254,6.1017 1.12821,1.6923 -0.49329,4.12852 0,6.10169 0.55152,2.20607 2.49933,3.89562 3.05085,6.1017 0.49329,1.97317 -1.43818,4.66351 0,6.10169 1.43818,1.43818 4.97349,-1.6923 6.1017,0 1.6923,2.53846 -0.96477,6.25826 0,9.15254 0.32158,0.96477 2.59605,-0.90958 3.05084,0 1.9986,3.9972 -2.51688,12.58443 -3.05084,15.25424 -0.39888,1.9944 -1.81918,5.19211 0,6.1017 3.63834,1.81917 8.13559,0 12.20339,0 1.01695,0 2.33175,-0.7191 3.05084,0 1.60794,1.60793 1.8809,4.15178 3.05085,6.10169 1.88648,3.14414 4.46191,5.87298 6.1017,9.15254 0.45479,0.90959 -0.56411,2.2047 0,3.05085 1.59552,2.39328 4.37587,3.8006 6.10169,6.1017 2.72876,3.63834 3.37293,8.56504 6.1017,12.20339 1.72582,2.30109 5.03343,3.43105 6.10169,6.10169 1.13306,2.83264 -0.73994,6.19279 0,9.15254 0.34881,1.39525 2.25309,1.85421 3.05085,3.05085 1.26137,1.89206 2.0339,4.0678 3.05085,6.1017 1.01694,2.03389 2.49932,3.89562 3.05084,6.10169 0.4933,1.97317 -0.90958,4.28252 0,6.10169 1.28635,2.57271 4.0678,4.0678 6.1017,6.1017 6.2662,6.2662 0.53755,-0.90063 3.05085,9.15254 5.13743,20.54972 0.0471,0.0471 6.10169,6.1017 0.003,0.003 -0.005,9.13871 0,9.15254 0.45479,1.36438 2.59605,1.68647 3.05085,3.05085 0.64317,1.92952 -1.43819,4.66351 0,6.10169 1.43818,1.43819 4.66351,-1.43818 6.10169,0 1.43819,1.43819 -0.64317,4.17217 0,6.1017 0.90959,2.72876 4.81535,3.52899 6.1017,6.10169 0.90958,1.81918 -1.43819,4.66351 0,6.1017 0.71909,0.71909 2.33175,-0.7191 3.05085,0 0.71909,0.71909 -0.4548,2.14126 0,3.05084 0.64317,1.28635 2.40767,1.7645 3.05084,3.05085 0.60482,1.20964 -0.6237,8.52884 0,9.15254 0.71909,0.7191 3.05085,1.01695 3.05085,0 0,-0.98372 -5.25412,-4.40653 -6.10169,-6.10169 -0.90959,-1.81917 1.43818,-4.66351 0,-6.1017 -6.31232,-6.31231 0.24675,9.64605 -6.1017,-3.05084 -0.90959,-1.81918 1.43818,-4.66352 0,-6.1017 -0.71909,-0.71909 -2.14126,0.4548 -3.05085,0 -6.54702,-3.27351 -0.14041,-3.33167 -3.05084,-9.15254 -0.4548,-0.90959 -2.14127,0.45479 -3.05085,0 -1.28635,-0.64318 -2.0339,-2.0339 -3.05085,-3.05085 -4.36364,-4.36363 -1.73806,-1.73806 -6.10169,-6.10169 -1.01695,-1.01695 -2.0339,-4.0678 -3.05085,-3.05085 -14.71743,14.71743 4.23718,9.54799 -6.1017,6.10169 -1.92952,-0.64317 -4.66351,1.43819 -6.10169,0 -1.43819,-1.43818 0.90959,-4.28252 0,-6.10169 -0.90959,-1.81917 -4.66351,1.43818 -6.1017,0 -0.71909,-0.71909 0.4548,-2.14126 0,-3.05085 -1.28635,-2.5727 -5.1921,-3.37293 -6.10169,-6.10169 -0.64318,-1.92953 0.64317,-4.17217 0,-6.1017 -3.17423,-9.52267 -2.0339,1.01695 -6.1017,-3.05085 -0.71909,-0.71909 0,-2.03389 0,-3.05084 0,-4.0678 0,-8.1356 0,-12.20339 0,-1.01695 0,-2.0339 0,-3.05085 0,-1.01695 0.7191,-2.33176 0,-3.05085 -1.60793,-1.60794 -4.49375,-1.44291 -6.10169,-3.05084 -1.43818,-1.43819 0.64317,-4.17217 0,-6.1017 -1.01695,-2.0339 -2.0339,-4.0678 -3.05085,-6.10169 -1.01695,0 -2.33175,0.71909 -3.05085,0 -0.71909,-0.7191 0.4548,-2.14127 0,-3.05085 -0.64317,-1.28635 -2.59605,-1.68647 -3.05084,-3.05085 -0.64318,-1.92953 0.90958,-4.28252 0,-6.10169 -0.4548,-0.90959 -2.14126,0.45479 -3.05085,0 -12.6969,-6.34845 3.26146,0.21061 -3.05085,-6.1017 -0.71909,-0.71909 -2.59605,0.90959 -3.05085,0 -0.90958,-1.81917 0,-4.0678 0,-6.10169 0,-1.01695 0.7191,-2.33176 0,-3.05085 -0.71909,-0.71909 -2.33175,0.71909 -3.05084,0 -0.73507,-0.73507 0.54716,-10.01473 0,-12.20339 -0.77997,-3.11986 -2.27089,-6.03269 -3.05085,-9.15254 -0.49329,-1.97318 0.90959,-4.28253 0,-6.1017 -0.64318,-1.28635 -2.59606,-1.68647 -3.05085,-3.05085 -0.64317,-1.92952 0.64318,-4.17217 0,-6.10169 -0.45479,-1.36438 -2.40767,-1.7645 -3.05085,-3.05085 -0.90958,-1.81917 0.64318,-4.17217 0,-6.10169 -0.71909,-2.15728 -2.33175,-3.94442 -3.05084,-6.1017 -0.39572,-1.18715 0.47345,-8.67909 0,-9.15254 -0.7191,-0.71909 -2.33176,0.71909 -3.05085,0 -0.71909,-0.71909 0.32159,-2.08609 0,-3.05085 -0.71909,-2.15727 -2.49933,-3.89562 -3.05085,-6.10169 -0.56204,-2.24817 0.89371,-13.46683 0,-15.25424 -0.64317,-1.28635 -2.40767,-1.7645 -3.05085,-3.05085 -0.3944,-0.7888 0,-16.14264 0,-18.30508 0,-1.01695 -0.71909,-2.33176 0,-3.05085 0.7191,-0.71909 2.33176,0.71909 3.05085,0 6.31231,-6.31231 -9.64605,0.24675 3.05085,-6.1017 0.90959,-0.45479 2.33175,0.7191 3.05085,0 0.71909,-0.71909 -0.7191,-2.33175 0,-3.05084 1.52542,-1.52543 7.62712,1.52542 9.15254,0 0.71909,-0.71909 -0.71909,-2.33176 0,-3.05085 0.0981,-0.0981 8.41263,0 9.15254,0 1.01695,0 2.33176,0.71909 3.05085,0 0.71909,-0.71909 -0.71909,-2.33176 0,-3.05085 0.71909,-0.71909 2.0339,0 3.05085,0 1.01695,0 2.14126,-0.45479 3.05084,0 1.28635,0.64318 1.7645,2.40767 3.05085,3.05085 0.90959,0.45479 2.14126,-0.45479 3.05085,0 1.28635,0.64317 1.7645,2.40767 3.05085,3.05085 0.90958,0.45479 2.33175,-0.71909 3.05084,0 0.7191,0.71909 -0.71909,2.33175 0,3.05084 0.7191,0.7191 2.14126,-0.45479 3.05085,0 1.28635,0.64318 1.7645,2.40768 3.05085,3.05085 0.90959,0.4548 2.33175,-0.71909 3.05085,0 1.52542,1.52543 -1.52543,7.62712 0,9.15254 1.60793,1.60794 4.49375,1.44291 6.10169,3.05085 1.43818,1.43819 -1.43818,4.66351 0,6.1017 1.60794,1.60793 4.49376,1.44291 6.1017,3.05084 0.73412,0.73413 -0.73413,11.46927 0,12.20339 1.43818,1.43819 4.66351,-1.43818 6.10169,0 1.43818,1.43819 -0.64317,4.17217 0,6.1017 0.45479,1.36438 2.0339,2.0339 3.05085,3.05085 1.01695,1.01695 2.40767,1.76449 3.05085,3.05084 0.40652,0.81305 0,16.92491 0,18.30509 0,1.37397 0.46423,8.22406 0,9.15254 -3.08514,6.17028 -7.08003,0.97833 -9.15255,3.05085 -0.71909,0.71909 0.9972,3.25029 0,3.05085 -36.17375,-7.23476 0.29815,-6.1017 -24.40678,-6.1017 -2.03389,0 4.66352,-1.43818 6.1017,0 14.47472,14.47472 2.75587,7.77461 0,9.15254 -1.28635,0.64318 -1.7645,2.40768 -3.05085,3.05085 -2.44068,1.22034 -6.71186,-1.22034 -9.15254,0 -1.28635,0.64318 -1.68647,2.59605 -3.05085,3.05085 -1.74811,0.5827 -12.39004,0 -15.25424,0 -1.37397,0 -8.22406,0.46424 -9.15254,0 -1.28635,-0.64318 -1.7645,-2.40767 -3.05085,-3.05085 -0.90958,-0.45479 -2.33175,0.71909 -3.05084,0 -3.99105,-3.99104 5.29581,-3.45379 6.10169,-3.05085 1.28635,0.64318 2.0339,2.0339 3.05085,3.05085 2.0339,1.01695 4.0678,2.0339 6.10169,3.05085 2.0339,1.01695 3.94442,2.33175 6.1017,3.05085 1.92952,0.64317 4.28252,-0.90959 6.10169,0 1.28635,0.64317 1.68647,2.59605 3.05085,3.05084 13.20901,4.403 -1.12132,-5.83229 12.20339,3.05085 1.19664,0.79776 1.7645,2.40767 3.05085,3.05085 0.90959,0.45479 2.0339,0 3.05085,0 2.03389,0 4.06779,0 6.10169,0 2.58909,0 16.62322,-0.56062 18.30509,0 1.36438,0.45479 1.68646,2.59605 3.05084,3.05085 2.89429,0.96476 6.1017,0 9.15255,0 8.27537,0 20.16261,1.81249 27.45762,-3.05085 0.84616,-0.5641 -0.90958,-2.59606 0,-3.05085 1.81918,-0.90959 4.17217,0.64318 6.1017,0 1.36438,-0.45479 1.8542,-2.25309 3.05084,-3.05085 1.89206,-1.26137 4.49376,-1.44291 6.1017,-3.05084 0.71909,-0.7191 -0.84615,-2.48675 0,-3.05085 11.98303,-7.98869 8.5726,4.01742 18.30508,-12.20339 1.04644,-1.74405 -0.64317,-4.17217 0,-6.1017 0.4548,-1.36438 2.0339,-2.03389 3.05085,-3.05084 1.01695,-2.0339 2.49933,-3.89563 3.05085,-6.1017 0.49329,-1.97317 -0.64318,-4.17217 0,-6.10169 0.45479,-1.36438 2.59605,-1.68647 3.05085,-3.05085 0.64317,-1.92953 -0.4933,-4.12852 0,-6.1017 0.55151,-2.20607 2.49933,-3.89562 3.05084,-6.10169 0.73994,-2.95976 0,-6.1017 0,-9.15254 0,-10.16949 0,-20.33899 0,-30.50848 0,-4.06779 -0.79776,-8.21458 0,-12.20339 0.63069,-3.15342 2.52217,-5.98042 3.05085,-9.15254 0.50156,-3.00934 0,-6.10169 0,-9.15254 0,-6.1017 0,-12.20339 0,-18.30509 0,-5.08474 0.9972,-10.26823 0,-15.25423 -0.44596,-2.22981 -2.0339,-4.0678 -3.05085,-6.1017 -2.03389,-4.0678 -3.69129,-8.34675 -6.10169,-12.20339 -3.45481,-5.5277 -12.02717,-14.90179 -15.25424,-21.35593 -1.43818,-2.87637 -1.61266,-6.27618 -3.05085,-9.15254 -7.16271,-14.32544 -4.58616,-3.83829 -9.15254,-15.25424 -1.75794,-4.39486 -3.03536,-11.16579 -6.10169,-15.25424 -13.1958,-13.1958 -0.47815,0.8082 -9.15255,-12.20339 -0.79776,-1.19664 -2.70203,-1.6556 -3.05084,-3.05085 -0.73994,-2.95975 0,-6.10169 0,-9.15254 0,-2.0339 0.90958,-4.28252 0,-6.10169 -0.4548,-0.90959 -2.33176,0.71909 -3.05085,0 -0.71909,-0.71909 0,-2.0339 0,-3.05085 0,-1.01695 0,-4.0678 0,-3.05085 0,16.32649 1.92953,-5.62355 -9.15254,9.15254 -1.83051,2.44068 0.59832,6.16094 0,9.15255 -0.44596,2.22981 -2.49933,3.89562 -3.05085,6.10169 -0.49329,1.97317 0,4.0678 0,6.1017 0,6.10169 0,12.20339 0,18.30508 0,15.25424 0,30.50848 0,45.76271 0,5.08475 0,10.16949 0,15.25424 0,2.0339 -0.33437,4.09547 0,6.1017 0.68932,4.13593 3.05085,8.0104 3.05085,12.20339 0,2.27396 -2.60489,3.87188 -3.05085,6.10169 -0.64433,3.22166 0,16.94382 0,21.35593 0,2.0339 0.49329,4.12853 0,6.1017 -0.55152,2.20607 -4.0678,4.06779 -3.05085,6.10169 1.63978,3.27956 6.55982,3.50898 9.15255,6.1017 0.71909,0.71909 -0.32159,2.08608 0,3.05084 0.71909,2.15728 1.78947,4.20964 3.05084,6.1017 3.05085,4.57627 6.1017,3.05085 9.15254,9.15254 0.90959,1.81918 -1.1282,4.40939 0,6.1017 1.26138,1.89205 4.49376,1.44291 6.1017,3.05084 0.71909,0.7191 -0.5641,2.2047 0,3.05085 2.0339,2.0339 4.0678,4.0678 6.10169,6.1017 0,1.01695 -0.45479,2.14126 0,3.05084 1.28635,2.5727 4.81535,3.529 6.1017,6.1017 0.45479,0.90959 -0.71909,2.33175 0,3.05085 5.44062,5.44062 8.37566,1.67513 15.25424,3.05084 12.76401,-5.52464 3.52899,4.81535 6.10169,6.1017 0.47734,0.23867 14.4013,0 15.25424,0 5.08474,0 10.16949,0 15.25424,0 1.01695,0 2.08608,0.32159 3.05084,0 2.15728,-0.71909 4.0678,-2.0339 6.1017,-3.05085 2.0339,-1.01695 4.28252,-1.68647 6.10169,-3.05085 2.3011,-1.72582 3.70842,-4.50617 6.1017,-6.10169 0.84615,-0.5641 2.20469,0.5641 3.05085,0 3.58992,-2.39328 6.10169,-6.1017 9.15254,-9.15254 2.0339,-2.0339 4.0678,-4.0678 6.10169,-6.1017 1.01695,-1.01695 2.25309,-1.8542 3.05085,-3.05085 2.52274,-3.78411 3.57896,-8.41927 6.1017,-12.20339 0.79776,-1.19664 2.59605,-1.68646 3.05084,-3.05084 0.91526,-2.74577 -0.91525,-6.40678 0,-9.15255 0.71909,-2.15727 2.49933,-3.89562 3.05085,-6.10169 0.49329,-1.97317 0,-4.0678 0,-6.1017 0,-3.05084 0,-6.10169 0,-9.15254 0,-9.15254 0,-18.30508 0,-27.45762 0,-3.05085 0,-6.1017 0,-9.15255 0,-2.0339 -0.49329,-4.12852 0,-6.10169 0.55152,-2.20607 2.60489,-3.87189 3.05085,-6.1017 0.59832,-2.9916 0,-6.10169 0,-9.15254 0,-1.01695 0.32159,-2.08608 0,-3.05085 -0.71909,-2.15727 -2.33176,-3.94442 -3.05085,-6.10169 -0.32159,-0.96476 0.45479,-2.14126 0,-3.05085 -4.65187,-9.30374 -2.4186,5.57983 -6.10169,-9.15254 -0.4933,-1.97317 0.64317,-4.17217 0,-6.1017 -0.4548,-1.36438 -2.25309,-1.8542 -3.05085,-3.05084 -1.26137,-1.89206 -1.44291,-4.49376 -3.05085,-6.1017 -0.71909,-0.71909 -2.33175,0.71909 -3.05085,0 -1.60793,-1.60794 -1.78947,-4.20964 -3.05084,-6.10169 -0.79776,-1.19664 -2.40768,-1.7645 -3.05085,-3.05085 -0.4548,-0.90959 0,-2.0339 0,-3.05085 -2.0339,-2.0339 -4.50618,-3.70841 -6.1017,-6.10169 -3.05084,-4.57627 6.1017,-3.05085 0,-9.15255 -1.43818,-1.43818 -4.66351,1.43819 -6.10169,0 -1.43818,-1.43818 0.64317,-4.17217 0,-6.10169 -3.17423,-9.52267 -2.0339,1.01695 -6.1017,-3.05085 -1.43818,-1.43818 1.43819,-4.66351 0,-6.10169 -0.71909,-0.71909 -2.33175,0.71909 -3.05084,0 -0.7191,-0.71909 0.71909,-2.33176 0,-3.05085 -0.7191,-0.71909 -2.33176,0.71909 -3.05085,0 -1.52542,-1.52542 1.52542,-7.62712 0,-9.15254 -0.71909,-0.71909 -2.33176,-0.71909 -3.05085,0 -0.71909,0.71909 0.71909,2.33175 0,3.05084 -0.71909,0.7191 -2.59605,0.90959 -3.05085,0 -0.90958,-1.81917 -1.43818,-7.53987 0,-6.10169 2.27397,2.27397 1.48908,6.34136 3.05085,9.15254 3.56138,6.41048 8.13559,12.20339 12.20339,18.30509 4.0678,6.10169 8.13559,12.20339 12.20339,18.30508 4.0678,6.1017 8.92383,11.74596 12.20339,18.30509 4.50684,9.01367 6.54555,24.66843 12.20339,33.55932 4.2642,6.70089 12.19938,10.97343 15.25424,18.30508 2.3468,5.63234 -1.00311,12.28641 0,18.30509 3.88112,23.28671 5.26935,13.03492 15.25424,30.50847 1.59552,2.79216 2.42016,5.99912 3.05084,9.15254 0.39888,1.99441 -1.1282,4.40939 0,6.1017 1.26137,1.89205 4.73732,1.23167 6.1017,3.05085 1.92952,2.5727 1.61266,6.27617 3.05085,9.15254 0.64317,1.28635 2.03389,2.0339 3.05084,3.05085 2.0339,2.0339 4.37588,3.8006 6.1017,6.10169 3.53458,4.71277 5.76562,13.2247 9.15254,18.30509 1.75505,2.63257 6.76957,6.76956 9.15254,9.15254 1.01695,1.01695 2.40767,1.7645 3.05085,3.05085 0.45479,0.90958 -0.71909,2.33175 0,3.05084 0.71909,0.7191 2.14126,-0.45479 3.05085,0 12.69689,6.34845 -3.26147,-0.21061 3.05084,6.1017 0.7191,0.71909 2.14127,-0.45479 3.05085,0 1.28635,0.64317 1.7645,2.40767 3.05085,3.05085 0.43854,0.21927 15.11565,0.0462 15.25424,0 2.72876,-0.90959 3.37293,-5.19211 6.10169,-6.1017 1.92953,-0.64317 4.17217,0.64318 6.1017,0 1.36438,-0.45479 1.8542,-2.25309 3.05084,-3.05085 3.78411,-2.52274 8.1356,-4.06779 12.20339,-6.10169 2.0339,-1.01695 3.99037,-2.20632 6.1017,-3.05085 2.98586,-1.19434 6.39495,-1.39629 9.15254,-3.05085 13.71542,-8.22925 0.0674,-3.11819 9.15254,-12.20339 1.60794,-1.60793 4.28252,-1.68646 6.1017,-3.05084 2.30109,-1.72582 3.63523,-4.62182 6.10169,-6.1017 2.75759,-1.65455 6.39496,-1.39629 9.15255,-3.05085 2.46646,-1.47987 4.06779,-4.06779 6.10169,-6.10169 1.01695,-1.01695 1.68647,-2.59605 3.05085,-3.05085 1.92952,-0.64317 4.28252,0.90959 6.10169,0 2.5727,-1.28635 3.70842,-4.50617 6.1017,-6.10169 0.84615,-0.5641 2.14126,0.45479 3.05085,0 2.5727,-1.28635 3.52899,-4.81535 6.10169,-6.1017 0.90959,-0.45479 2.0339,0 3.05085,0 2.0339,-2.0339 3.70841,-4.50617 6.10169,-6.10169 0.84616,-0.5641 2.33176,0.71909 3.05085,0 0.71909,-0.71909 -0.71909,-2.33176 0,-3.05085 3.00959,-3.00959 6.1017,6.25142 6.1017,-3.05085"
     id="path3049"
     inkscape:connector-curvature="0" />
  <use
     id="use3051"
     xlink:href="#path3049"
     x="0"
     y="0"
     width="450"
     height="720"
     transform="translate(-293.87065,-411.21247)" />
  <use
     id="use3053"
     xlink:href="#path3049"
     x="0"
     y="0"
     width="450"
     height="720"
     transform="translate(-304.56345,-380.5277)" />
  <use
     id="use3055"
     xlink:href="#path3049"
     x="0"
     y="0"
     width="450"
     height="720"
     transform="translate(-278.98147,-382.66672)" />
  <use
     id="use3057"
     xlink:href="#path3049"
     x="0"
     y="0"
     width="450"
     height="720"
     transform="translate(-331.19379,-465.79455)" />
  <use
     id="use3059"
     xlink:href="#path3049"
     x="0"
     y="0"
     width="450"
     height="720"
     transform="translate(-235.5612,-434.33315)" />
  <use
     id="use3061"
     xlink:href="#path3049"
     x="0"
     y="0"
     width="450"
     height="720"
     transform="translate(-263.92688,-149.71591)" />
  <use
     id="use3063"
     xlink:href="#path3049"
     x="0"
     y="0"
     width="450"
     height="720"
     transform="translate(-103.28117,-65.565193)" />
  <use
     id="use3065"
     xlink:href="#path3049"
     x="0"
     y="0"
     width="450"
     height="720"
     transform="translate(-3.1017595,42.712141)" />
  <use
     id="use3067"
     xlink:href="#path3049"
     x="0"
     y="0"
     width="450"
     height="720"
     transform="translate(6.7479654,195.93027)" />
  <use
     id="use3069"
     xlink:href="#path3049"
     x="0"
     y="0"
     width="450"
     height="720"
     transform="translate(18.228672,176.38218)" />
  <use
     id="use3071"
     xlink:href="#path3049"
     x="0"
     y="0"
     width="450"
     height="720"
     transform="translate(-75.667923,57.986232)" />
  <use
     id="use3073"
     xlink:href="#path3049"
     x="0"
     y="0"
     width="450"
     height="720"
     transform="translate(-12.953335,173.64457)" />
  <use
     id="use3075"
     xlink:href="#path3049"
     x="0"
     y="0"
     width="450"
     height="720"
     transform="translate(30.70775,209.40376)" />
  <use
     id="use3077"
     xlink:href="#path3049"
     x="0"
     y="0"
     width="450"
     height="720"
     transform="translate(32.584488,244.84973)" />
  <use
     id="use3079"
     xlink:href="#path3049"
     x="0"
     y="0"
     width="450"
     height="720"
     transform="translate(9.2400968,186.29546)" />
  <use
     id="use3081"
     xlink:href="#path3049"
     x="0"
     y="0"
     width="450"
     height="720"
     transform="translate(85.560693,180.96255)" />
  <use
     id="use3083"
     xlink:href="#path3049"
     x="0"
     y="0"
     width="450"
     height="720"
     transform="translate(-6.2193196,234.55553)" />
  <use
     id="use3085"
     xlink:href="#path3049"
     x="0"
     y="0"
     width="450"
     height="720"
     transform="translate(14.85932,222.86043)" />
  <use
     id="use3087"
     xlink:href="#path3049"
     x="0"
     y="0"
     width="450"
     height="720"
     transform="translate(114.78463,179.13799)" />
  <use
     id="use3089"
     xlink:href="#path3049"
     x="0"
     y="0"
     width="450"
     height="720"
     transform="translate(125.37363,189.66362)" />
  <use
     id="use3091"
     xlink:href="#path3049"
     x="0"
     y="0"
     width="450"
     height="720"
     transform="translate(-182.9151,-128.78383)" />
  <use
     id="use3093"
     xlink:href="#path3049"
     x="0"
     y="0"
     width="450"
     height="720"
     transform="translate(-227.94114,-120.87334)" />
  <use
     id="use3095"
     xlink:href="#path3049"
     x="0"
     y="0"
     width="450"
     height="720"
     transform="translate(-154.7007,-65.856312)" />
  <use
     id="use3097"
     xlink:href="#path3049"
     x="0"
     y="0"
     width="450"
     height="720"
     transform="translate(-150.00171,-73.178484)" />
  <use
     id="use3099"
     xlink:href="#path3049"
     x="0"
     y="0"
     width="450"
     height="720"
     transform="translate(-34.672843,-98.195125)" />
  <use
     id="use3101"
     xlink:href="#path3049"
     x="0"
     y="0"
     width="450"
     height="720"
     transform="translate(-135.4827,-122.83358)" />
  <use
     id="use3103"
     xlink:href="#path3049"
     x="0"
     y="0"
     width="450"
     height="720"
     transform="translate(-125.5538,-19.136076)" />
  <use
     id="use3105"
     xlink:href="#path3049"
     x="0"
     y="0"
     width="450"
     height="720"
     transform="translate(-17.119196,22.321559)" />
  <use
     id="use3107"
     xlink:href="#path3049"
     x="0"
     y="0"
     width="450"
     height="720"
     transform="translate(74.154358,107.48058)" />
  <use
     id="use3109"
     xlink:href="#path3049"
     x="0"
     y="0"
     width="450"
     height="720"
     transform="translate(43.036541,194.8985)" />
  <use
     id="use3111"
     xlink:href="#path3049"
     x="0"
     y="0"
     width="450"
     height="720"
     transform="translate(150.81414,103.83124)" />
  <use
     id="use3113"
     xlink:href="#path3049"
     x="0"
     y="0"
     width="450"
     height="720"
     transform="translate(137.33094,214.91655)" />
  <use
     id="use3115"
     xlink:href="#path3049"
     x="0"
     y="0"
     width="450"
     height="720"
     transform="translate(91.986212,247.63269)" />
  <use
     id="use3117"
     xlink:href="#path3049"
     x="0"
     y="0"
     width="450"
     height="720"
     transform="translate(113.49341,213.68242)" />
  <use
     id="use3119"
     xlink:href="#path3049"
     x="0"
     y="0"
     width="450"
     height="720"
     transform="translate(64.654433,320.70679)" />
  <use
     id="use3121"
     xlink:href="#path3049"
     x="0"
     y="0"
     width="450"
     height="720"
     transform="translate(143.02664,372.62526)" />
  <use
     id="use3123"
     xlink:href="#path3049"
     x="0"
     y="0"
     width="450"
     height="720"
     transform="translate(133.33993,374.88683)" />
  <use
     id="use3125"
     xlink:href="#path3049"
     x="0"
     y="0"
     width="450"
     height="720"
     transform="translate(151.07311,282.23931)" />
  <use
     id="use3127"
     xlink:href="#path3049"
     x="0"
     y="0"
     width="450"
     height="720"
     transform="translate(128.71144,395.86069)" />
  <use
     id="use3129"
     xlink:href="#path3049"
     x="0"
     y="0"
     width="450"
     height="720"
     transform="translate(115.09357,314.36885)" />
  <use
     id="use3131"
     xlink:href="#path3049"
     x="0"
     y="0"
     width="450"
     height="720"
     transform="translate(-394.88981,-423.455)" />
  <use
     id="use3133"
     xlink:href="#path3049"
     x="0"
     y="0"
     width="450"
     height="720"
     transform="translate(-340.11572,-450.788)" />
  <use
     id="use3135"
     xlink:href="#path3049"
     x="0"
     y="0"
     width="450"
     height="720"
     transform="translate(-528.80888,-399.38023)" />
  <use
     id="use3137"
     xlink:href="#path3049"
     x="0"
     y="0"
     width="450"
     height="720"
     transform="translate(-385.79564,-176.22169)" />
  <use
     id="use3139"
     xlink:href="#path3049"
     x="0"
     y="0"
     width="450"
     height="720"
     transform="translate(-242.22243,32.266253)" />
  <use
     id="use3141"
     xlink:href="#path3049"
     x="0"
     y="0"
     width="450"
     height="720"
     transform="translate(-103.62129,7.642465)" />
  <use
     id="use3143"
     xlink:href="#path3049"
     x="0"
     y="0"
     width="450"
     height="720"
     transform="translate(-116.52036,233.4361)" />
  <use
     id="use3145"
     xlink:href="#path3049"
     x="0"
     y="0"
     width="450"
     height="720"
     transform="translate(-138.56842,64.537793)" />
  <use
     id="use3147"
     xlink:href="#path3049"
     x="0"
     y="0"
     width="450"
     height="720"
     transform="translate(-129.96856,260.6389)" />
  <use
     id="use3149"
     xlink:href="#path3049"
     x="0"
     y="0"
     width="450"
     height="720"
     transform="translate(77.394733,383.52329)" />
  <use
     id="use3151"
     xlink:href="#path3049"
     x="0"
     y="0"
     width="450"
     height="720"
     transform="translate(-0.02036455,306.97107)" />
  <use
     id="use3153"
     xlink:href="#path3049"
     x="0"
     y="0"
     width="450"
     height="720"
     transform="translate(-29.586742,451.01731)" />
  <use
     id="use3155"
     xlink:href="#path3049"
     x="0"
     y="0"
     width="450"
     height="720"
     transform="translate(90.362209,467.94459)" />
  <use
     id="use3157"
     xlink:href="#path3049"
     x="0"
     y="0"
     width="450"
     height="720"
     transform="translate(175.97639,559.03836)" />
  <use
     id="use3159"
     xlink:href="#path3049"
     x="0"
     y="0"
     width="450"
     height="720"
     transform="translate(206.4285,546.39548)" />
  <use
     id="use3161"
     xlink:href="#path3049"
     x="0"
     y="0"
     width="450"
     height="720"
     transform="translate(188.93625,513.30039)" />
  <use
     id="use3163"
     xlink:href="#path3049"
     x="0"
     y="0"
     width="450"
     height="720"
     transform="translate(296.74055,466.1837)" />
  <use
     id="use3165"
     xlink:href="#path3049"
     x="0"
     y="0"
     width="450"
     height="720"
     transform="translate(290.53592,555.37345)" />
  <use
     id="use3167"
     xlink:href="#path3049"
     x="0"
     y="0"
     width="450"
     height="720"
     transform="translate(374.19454,530.75086)" />
  <use
     id="use3169"
     xlink:href="#path3049"
     x="0"
     y="0"
     width="450"
     height="720"
     transform="translate(231.5132,456.10163)" />
  <use
     id="use3171"
     xlink:href="#path3049"
     x="0"
     y="0"
     width="450"
     height="720"
     transform="translate(362.6527,442.82466)" />
  <use
     id="use3173"
     xlink:href="#path3049"
     x="0"
     y="0"
     width="450"
     height="720"
     transform="translate(430.41565,452.96283)" />
  <use
     id="use3175"
     xlink:href="#path3049"
     x="0"
     y="0"
     width="450"
     height="720"
     transform="translate(492.24794,412.494)" />
  <use
     id="use3177"
     xlink:href="#path3049"
     x="0"
     y="0"
     width="450"
     height="720"
     transform="translate(461.49035,477.37845)" />
  <use
     id="use3179"
     xlink:href="#path3049"
     x="0"
     y="0"
     width="450"
     height="720"
     transform="translate(481.10762,82.660828)" />
  <use
     id="use3181"
     xlink:href="#path3049"
     x="0"
     y="0"
     width="450"
     height="720"
     transform="translate(397.287,-82.249625)" />
  <use
     id="use3183"
     xlink:href="#path3049"
     x="0"
     y="0"
     width="450"
     height="720"
     transform="translate(272.93353,-86.967176)" />
  <use
     id="use3185"
     xlink:href="#path3049"
     x="0"
     y="0"
     width="450"
     height="720"
     transform="translate(272.0618,-173.54137)" />
  <use
     id="use3187"
     xlink:href="#path3049"
     x="0"
     y="0"
     width="450"
     height="720"
     transform="translate(152.42061,-254.58063)" />
  <use
     id="use3189"
     xlink:href="#path3049"
     x="0"
     y="0"
     width="450"
     height="720"
     transform="translate(92.24046,-306.59836)" />
  <use
     id="use3191"
     xlink:href="#path3049"
     x="0"
     y="0"
     width="450"
     height="720"
     transform="translate(129.471,-223.45498)" />
  <use
     id="use3193"
     xlink:href="#path3049"
     x="0"
     y="0"
     width="450"
     height="720"
     transform="translate(151.28827,-242.71916)" />
  <use
     id="use3195"
     xlink:href="#path3049"
     x="0"
     y="0"
     width="450"
     height="720"
     transform="translate(140.53494,-302.10835)" />
  <use
     id="use3197"
     xlink:href="#path3049"
     x="0"
     y="0"
     width="450"
     height="720"
     transform="translate(29.993161,-393.04088)" />
  <use
     id="use3199"
     xlink:href="#path3049"
     x="0"
     y="0"
     width="450"
     height="720"
     transform="translate(47.679653,-506.09591)" />
  <use
     id="use3201"
     xlink:href="#path3049"
     x="0"
     y="0"
     width="450"
     height="720"
     transform="translate(-6.3953664,-458.98979)" />
  <use
     id="use3203"
     xlink:href="#path3049"
     x="0"
     y="0"
     width="450"
     height="720"
     transform="translate(-117.87533,-481.33142)" />
  <use
     id="use3205"
     xlink:href="#path3049"
     x="0"
     y="0"
     width="450"
     height="720"
     transform="translate(-86.562483,-495.80536)" />
  <use
     id="use3207"
     xlink:href="#path3049"
     x="0"
     y="0"
     width="450"
     height="720"
     transform="translate(-191.18591,-578.34384)" />
  <use
     id="use3209"
     xlink:href="#path3049"
     x="0"
     y="0"
     width="450"
     height="720"
     transform="translate(-280.90623,-586.48857)" />
  <use
     id="use3211"
     xlink:href="#path3049"
     x="0"
     y="0"
     width="450"
     height="720"
     transform="translate(-264.36538,-548.80908)" />
  <use
     id="use3213"
     xlink:href="#path3049"
     x="0"
     y="0"
     width="450"
     height="720"
     transform="translate(-256.56352,-572.12595)" />
  <use
     id="use3215"
     xlink:href="#path3049"
     x="0"
     y="0"
     width="450"
     height="720"
     transform="translate(-389.70777,-538.50721)" />
  <use
     id="use3217"
     xlink:href="#path3049"
     x="0"
     y="0"
     width="450"
     height="720"
     transform="translate(-340.93917,-519.69384)" />
  <use
     id="use3219"
     xlink:href="#path3049"
     x="0"
     y="0"
     width="450"
     height="720"
     transform="translate(-517.93302,-557.69359)" />
  <use
     id="use3221"
     xlink:href="#path3049"
     x="0"
     y="0"
     width="450"
     height="720"
     transform="translate(-495.14684,-372.26236)" />
  <use
     id="use3223"
     xlink:href="#path3049"
     x="0"
     y="0"
     width="450"
     height="720"
     transform="translate(-397.69774,-210.59468)" />
  <use
     id="use3225"
     xlink:href="#path3049"
     x="0"
     y="0"
     width="450"
     height="720"
     transform="translate(-442.89008,-181.62206)" />
  <use
     id="use3227"
     xlink:href="#path3049"
     x="0"
     y="0"
     width="450"
     height="720"
     transform="translate(-429.78866,81.818538)" />
  <use
     id="use3229"
     xlink:href="#path3049"
     x="0"
     y="0"
     width="450"
     height="720"
     transform="translate(-307.49063,141.88077)" />
  <use
     id="use3231"
     xlink:href="#path3049"
     x="0"
     y="0"
     width="450"
     height="720"
     transform="translate(-232.2571,231.9228)" />
  <use
     id="use3233"
     xlink:href="#path3049"
     x="0"
     y="0"
     width="450"
     height="720"
     transform="translate(-245.69134,246.61974)" />
  <use
     id="use3235"
     xlink:href="#path3049"
     x="0"
     y="0"
     width="450"
     height="720"
     transform="translate(-310.46546,356.61792)" />
  <use
     id="use3237"
     xlink:href="#path3049"
     x="0"
     y="0"
     width="450"
     height="720"
     transform="translate(-313.60412,276.45016)" />
  <use
     id="use3239"
     xlink:href="#path3049"
     x="0"
     y="0"
     width="450"
     height="720"
     transform="translate(-408.6435,479.03234)" />
  <use
     id="use3241"
     xlink:href="#path3049"
     x="0"
     y="0"
     width="450"
     height="720"
     transform="translate(-315.76444,496.27445)" />
  <use
     id="use3243"
     xlink:href="#path3049"
     x="0"
     y="0"
     width="450"
     height="720"
     transform="translate(-172.77737,436.88063)" />
  <use
     id="use3245"
     xlink:href="#path3049"
     x="0"
     y="0"
     width="450"
     height="720"
     transform="translate(-147.29395,362.96924)" />
  <use
     id="use3247"
     xlink:href="#path3049"
     x="0"
     y="0"
     width="450"
     height="720"
     transform="translate(133.69576,366.84352)" />
  <use
     id="use3249"
     xlink:href="#path3049"
     x="0"
     y="0"
     width="450"
     height="720"
     transform="translate(338.77069,355.9242)" />
  <use
     id="use3251"
     xlink:href="#path3049"
     x="0"
     y="0"
     width="450"
     height="720"
     transform="translate(318.74673,295.78314)" />
  <use
     id="use3253"
     xlink:href="#path3049"
     x="0"
     y="0"
     width="450"
     height="720"
     transform="translate(284.13574,166.36691)" />
  <use
     id="use3255"
     xlink:href="#path3049"
     x="0"
     y="0"
     width="450"
     height="720"
     transform="translate(383.63147,51.934308)" />
  <use
     id="use3257"
     xlink:href="#path3049"
     x="0"
     y="0"
     width="450"
     height="720"
     transform="translate(356.61751,-238.52163)" />
  <use
     id="use3259"
     xlink:href="#path3049"
     x="0"
     y="0"
     width="450"
     height="720"
     transform="translate(249.43219,-394.02906)" />
  <use
     id="use3261"
     xlink:href="#path3049"
     x="0"
     y="0"
     width="450"
     height="720"
     transform="translate(147.54855,-513.61009)" />
  <use
     id="use3263"
     xlink:href="#path3049"
     x="0"
     y="0"
     width="450"
     height="720"
     transform="translate(223.64552,-575.40663)" />
  <use
     id="use3265"
     xlink:href="#path3049"
     x="0"
     y="0"
     width="450"
     height="720"
     transform="translate(223.72011,-501.3395)" />
  <use
     id="use3267"
     xlink:href="#path3049"
     x="0"
     y="0"
     width="450"
     height="720"
     transform="translate(63.029436,-507.85245)" />
  <use
     id="use3269"
     xlink:href="#path3049"
     x="0"
     y="0"
     width="450"
     height="720"
     transform="translate(-7.2281473,-482.92987)" />
  <use
     id="use3271"
     xlink:href="#path3049"
     x="0"
     y="0"
     width="450"
     height="720"
     transform="translate(-133.37504,-555.89314)" />
  <use
     id="use3273"
     xlink:href="#path3049"
     x="0"
     y="0"
     width="450"
     height="720"
     transform="translate(-233.70579,-517.10901)" />
  <use
     id="use3275"
     xlink:href="#path3049"
     x="0"
     y="0"
     width="450"
     height="720"
     transform="translate(-367.78635,-430.53668)" />
  <use
     id="use3277"
     xlink:href="#path3049"
     x="0"
     y="0"
     width="450"
     height="720"
     transform="translate(-402.60633,-392.43243)" />
  <use
     id="use3279"
     xlink:href="#path3049"
     x="0"
     y="0"
     width="450"
     height="720"
     transform="translate(-437.92817,-403.14249)" />
  <use
     id="use3281"
     xlink:href="#path3049"
     x="0"
     y="0"
     width="450"
     height="720"
     transform="translate(-528.14748,-226.15097)" />
  <use
     id="use3283"
     xlink:href="#path3049"
     x="0"
     y="0"
     width="450"
     height="720"
     transform="translate(-426.5353,51.076851)" />
  <use
     id="use3285"
     xlink:href="#path3049"
     x="0"
     y="0"
     width="450"
     height="720"
     transform="translate(-327.30426,197.12424)" />
  <use
     id="use3287"
     xlink:href="#path3049"
     x="0"
     y="0"
     width="450"
     height="720"
     transform="translate(-357.97491,195.05357)" />
  <use
     id="use3289"
     xlink:href="#path3049"
     x="0"
     y="0"
     width="450"
     height="720"
     transform="translate(-326.64329,325.4873)" />
  <use
     id="use3291"
     xlink:href="#path3049"
     x="0"
     y="0"
     width="450"
     height="720"
     transform="translate(-306.79615,326.63056)" />
  <use
     id="use3293"
     xlink:href="#path3049"
     x="0"
     y="0"
     width="450"
     height="720"
     transform="translate(-131.49595,445.71277)" />
  <use
     id="use3295"
     xlink:href="#path3049"
     x="0"
     y="0"
     width="450"
     height="720"
     transform="translate(-70.650762,412.91574)" />
  <use
     id="use3297"
     xlink:href="#path3049"
     x="0"
     y="0"
     width="450"
     height="720"
     transform="translate(-27.346462,343.34333)" />
  <use
     id="use3299"
     xlink:href="#path3049"
     x="0"
     y="0"
     width="450"
     height="720"
     transform="translate(-20.861978,452.73637)" />
  <use
     id="use3301"
     xlink:href="#path3049"
     x="0"
     y="0"
     width="450"
     height="720"
     transform="translate(101.45095,366.01484)" />
  <use
     id="use3303"
     xlink:href="#path3049"
     x="0"
     y="0"
     width="450"
     height="720"
     transform="translate(125.28321,400.35139)" />
  <use
     id="use3305"
     xlink:href="#path3049"
     x="0"
     y="0"
     width="450"
     height="720"
     transform="translate(202.19636,441.85642)" />
  <use
     id="use3307"
     xlink:href="#path3049"
     x="0"
     y="0"
     width="450"
     height="720"
     transform="translate(75.93234,496.11724)" />
  <use
     id="use3309"
     xlink:href="#path3049"
     x="0"
     y="0"
     width="450"
     height="720"
     transform="translate(76.525556,496.26134)" />
  <use
     id="use3311"
     xlink:href="#path3049"
     x="0"
     y="0"
     width="450"
     height="720"
     transform="translate(172.23321,380.74583)" />
  <use
     id="use3313"
     xlink:href="#path3049"
     x="0"
     y="0"
     width="450"
     height="720"
     transform="translate(79.873156,425.97894)" />
  <use
     id="use3315"
     xlink:href="#path3049"
     x="0"
     y="0"
     width="450"
     height="720"
     transform="translate(73.733498,242.75433)" />
  <use
     id="use3317"
     xlink:href="#path3049"
     x="0"
     y="0"
     width="450"
     height="720"
     transform="translate(-153.95835,-118.51261)" />
  <use
     id="use3319"
     xlink:href="#path3049"
     x="0"
     y="0"
     width="450"
     height="720"
     transform="translate(-402.18102,-376.07464)" />
  <use
     id="use3321"
     xlink:href="#path3049"
     x="0"
     y="0"
     width="450"
     height="720"
     transform="translate(-301.87629,-401.42807)" />
  <use
     id="use3323"
     xlink:href="#path3049"
     x="0"
     y="0"
     width="450"
     height="720"
     transform="translate(-333.64262,-474.30074)" />
  <use
     id="use3325"
     xlink:href="#path3049"
     x="0"
     y="0"
     width="450"
     height="720"
     transform="translate(-354.76106,-630.77942)" />
  <use
     id="use3327"
     xlink:href="#path3049"
     x="0"
     y="0"
     width="450"
     height="720"
     transform="translate(-129.06046,-577.03424)" />
  <use
     id="use3329"
     xlink:href="#path3049"
     x="0"
     y="0"
     width="450"
     height="720"
     transform="translate(387.9928,-576.73386)" />
  <use
     id="use3331"
     xlink:href="#path3049"
     x="0"
     y="0"
     width="450"
     height="720"
     transform="translate(498.67407,-516.26499)" />
  <use
     id="use3333"
     xlink:href="#path3049"
     x="0"
     y="0"
     width="450"
     height="720"
     transform="translate(348.36268,-364.46817)" />
  <use
     id="use3335"
     xlink:href="#path3049"
     x="0"
     y="0"
     width="450"
     height="720"
     transform="translate(410.06325,-456.43585)" />
  <use
     id="use3337"
     xlink:href="#path3049"
     x="0"
     y="0"
     width="450"
     height="720"
     transform="translate(272.56787,-352.77627)" />
  <use
     id="use3339"
     xlink:href="#path3049"
     x="0"
     y="0"
     width="450"
     height="720"
     transform="translate(-36.819022,-253.55563)" />
  <use
     id="use3341"
     xlink:href="#path3049"
     x="0"
     y="0"
     width="450"
     height="720"
     transform="translate(-226.28985,-306.80895)" />
  <use
     id="use3343"
     xlink:href="#path3049"
     x="0"
     y="0"
     width="450"
     height="720"
     transform="translate(-367.16876,-60.542124)" />
  <use
     id="use3345"
     xlink:href="#path3049"
     x="0"
     y="0"
     width="450"
     height="720"
     transform="translate(-192.13668,-9.6380027)" />
  <use
     id="use3347"
     xlink:href="#path3049"
     x="0"
     y="0"
     width="450"
     height="720"
     transform="translate(-251.97045,80.499009)" />
  <use
     id="use3349"
     xlink:href="#path3049"
     x="0"
     y="0"
     width="450"
     height="720"
     transform="translate(-119.62321,242.34236)" />
  <use
     id="use3351"
     xlink:href="#path3049"
     x="0"
     y="0"
     width="450"
     height="720"
     transform="translate(-64.562017,155.03173)" />
  <use
     id="use3353"
     xlink:href="#path3049"
     x="0"
     y="0"
     width="450"
     height="720"
     transform="translate(-424.32362,-253.42552)" />
  <use
     id="use3355"
     xlink:href="#path3049"
     x="0"
     y="0"
     width="450"
     height="720"
     transform="translate(-478.52464,-364.79699)" />
  <use
     id="use3357"
     xlink:href="#path3049"
     x="0"
     y="0"
     width="450"
     height="720"
     transform="translate(-537.50228,-421.65971)" />
  <use
     id="use3359"
     xlink:href="#path3049"
     x="0"
     y="0"
     width="450"
     height="720"
     transform="translate(-452.61332,-497.19254)" />
  <use
     id="use3361"
     xlink:href="#path3049"
     x="0"
     y="0"
     width="450"
     height="720"
     transform="translate(-504.62785,-419.25025)" />
  <use
     id="use3363"
     xlink:href="#path3049"
     x="0"
     y="0"
     width="450"
     height="720"
     transform="translate(-404.5822,-460.42916)" />
  <use
     id="use3365"
     xlink:href="#path3049"
     x="0"
     y="0"
     width="450"
     height="720"
     transform="translate(-582.25133,-432.8756)" />
  <use
     id="use3367"
     xlink:href="#path3049"
     x="0"
     y="0"
     width="450"
     height="720"
     transform="translate(-356.3881,-65.827182)" />
  <use
     id="use3369"
     xlink:href="#path3049"
     x="0"
     y="0"
     width="450"
     height="720"
     transform="translate(-15.064598,400.00619)" />
  <use
     id="use3371"
     xlink:href="#path3049"
     x="0"
     y="0"
     width="450"
     height="720"
     transform="translate(68.049592,340.47397)" />
  <use
     id="use3373"
     xlink:href="#path3049"
     x="0"
     y="0"
     width="450"
     height="720"
     transform="translate(106.3222,347.91444)" />
  <use
     id="use3375"
     xlink:href="#path3049"
     x="0"
     y="0"
     width="450"
     height="720"
     transform="translate(339.77974,348.44011)" />
  <use
     id="use3377"
     xlink:href="#path3049"
     x="0"
     y="0"
     width="450"
     height="720"
     transform="translate(440.11372,386.72266)" />
  <use
     id="use3379"
     xlink:href="#path3049"
     x="0"
     y="0"
     width="450"
     height="720"
     transform="translate(448.90268,233.3437)" />
  <use
     id="use3381"
     xlink:href="#path3049"
     x="0"
     y="0"
     width="450"
     height="720"
     transform="translate(337.66265,-71.866677)" />
  <use
     id="use3383"
     xlink:href="#path3049"
     x="0"
     y="0"
     width="450"
     height="720"
     transform="translate(287.71728,-183.6446)" />
  <use
     id="use3385"
     xlink:href="#path3049"
     x="0"
     y="0"
     width="450"
     height="720"
     transform="translate(251.46361,-420.18888)" />
  <use
     id="use3387"
     xlink:href="#path3049"
     x="0"
     y="0"
     width="450"
     height="720"
     transform="translate(103.32303,-324.61484)" />
  <use
     id="use3389"
     xlink:href="#path3049"
     x="0"
     y="0"
     width="450"
     height="720"
     transform="translate(48.031002,-447.52115)" />
  <use
     id="use3391"
     xlink:href="#path3049"
     x="0"
     y="0"
     width="450"
     height="720"
     transform="translate(68.923393,-510.90997)" />
  <use
     id="use3393"
     xlink:href="#path3049"
     x="0"
     y="0"
     width="450"
     height="720"
     transform="translate(-208.03917,-489.78574)" />
  <use
     id="use3395"
     xlink:href="#path3049"
     x="0"
     y="0"
     width="450"
     height="720"
     transform="translate(-190.62247,-373.41612)" />
  <path
     style="fill:#a0a0a0;stroke:none"
     d="m -173.12361,-137.0802 c -6.49835,-10.51455 -7.97585,-23.99878 -4.52189,-41.26859 2.28582,-11.42906 4.62492,-10.39782 13.04139,5.74954 7.38689,14.17207 8.55303,37.06299 2.15847,42.37001 -3.40997,2.83002 -5.53903,1.46402 -10.67797,-6.85096 z"
     id="path3397"
     inkscape:connector-curvature="0" />
  <path
     sodipodi:type="spiral"
     style="fill:none;stroke:#000000;stroke-width:1px;stroke-linecap:butt;stroke-linejoin:miter;stroke-opacity:1"
     id="path3399"
     sodipodi:cx="-417.96609"
     sodipodi:cy="-115.93221"
     sodipodi:expansion="1"
     sodipodi:revolution="3"
     sodipodi:radius="328.01932"
     sodipodi:argument="-16.957008"
     sodipodi:t0="0"
     d="m -417.96609,-115.93221 c -5.20081,15.60239 -23.59761,0.68708 -25.9322,-8.64409 -6.32661,-25.28689 20.99691,-43.52217 43.22037,-43.22031 39.75255,0.53996 64.65941,41.103 60.50842,77.796654 -6.09174,53.84941 -61.41058,86.225921 -112.37294,77.796536 -67.9248,-11.235045 -107.9635,-81.780348 -95.08465,-146.94922 16.20672,-82.00838 102.17748,-129.78717 181.52551,-112.37276 96.1011,21.09118 151.66024,122.58955 129.66087,216.101786 C -262.3662,54.777321 -379.45158,118.14064 -487.11878,91.525372 -611.42482,60.79699 -682.6077,-71.913008 -651.35588,-193.72898 c 35.51031,-138.41506 183.87024,-217.42806 319.83064,-181.52521 152.52702,40.27756 239.377702,204.3053 198.81332,354.406919 -45.03414,166.641251 -224.74277,261.335231 -388.9832,216.101431" />
  <path
     sodipodi:type="spiral"
     style="fill:none;stroke:#000000;stroke-width:1px;stroke-linecap:butt;stroke-linejoin:miter;stroke-opacity:1"
     id="path3401"
     sodipodi:cx="-417.96609"
     sodipodi:cy="-97.627121"
     sodipodi:expansion="1"
     sodipodi:revolution="3"
     sodipodi:radius="1053.7974"
     sodipodi:argument="-18.214161"
     sodipodi:t0="0"
     d="m -417.96609,-97.627121 c 41.74812,30.785505 -18.55936,72.979813 -52.11867,70.677954 -83.54454,-5.730383 -112.18703,-107.302203 -89.23724,-174.915283 41.05179,-120.94394 189.69475,-156.8513 297.7119,-107.79653 158.5195,71.98984 202.627656,273.128534 126.35582,420.50851 -101.65836,196.43434 -356.9219,248.86515 -543.30513,144.91512 -234.54429,-130.8105 -295.3386,-440.8842 -163.47441,-666.10175 159.70519,-272.76864 524.94116,-341.94819 788.898371,-182.0337 C 257.92899,-403.91911 335.50774,16.684256 147.45754,319.32219 -71.507817,671.71333 -542.77797,756.60353 -887.03407,538.47447 -1278.1429,290.65837 -1371.3574,-235.60113 -1124.7456,-618.81376 -848.12156,-1048.6629 -266.80871,-1150.2078 155.33921,-875.08462 623.94541,-569.68355 733.82548,66.72964 430.16936,527.79684" />
  <flowRoot
     xml:space="preserve"
     id="flowRoot3405"
     style="fill:black;stroke:none;stroke-opacity:1;stroke-width:1px;stroke-linejoin:miter;stroke-linecap:butt;fill-opacity:1;font-family:Sans;font-style:normal;font-weight:normal;font-size:40px;line-height:125%;letter-spacing:0px;word-spacing:0px"><flowRegion
       id="flowRegion3407"><rect
         id="rect3409"
         width="533.89832"
         height="222.71187"
         x="-326.44067"
         y="-375.25424" /></flowRegion><flowPara
       id="flowPara3411"></flowPara></flowRoot>  <flowRoot
     xml:space="preserve"
     id="flowRoot3413"
     style="font-size:40px;font-style:normal;font-weight:normal;line-height:125%;letter-spacing:0px;word-spacing:0px;fill:#000000;fill-opacity:1;stroke:none;font-family:Sans"><flowRegion
       id="flowRegion3415"><rect
         id="rect3417"
         width="915.25421"
         height="305.08475"
         x="-45.762711"
         y="677.28815" /></flowRegion><flowPara
       id="flowPara3419">deepu\</flowPara><flowPara
       id="flowPara3421" /></flowRoot></svg>
